<?xml version="1.0" encoding="UTF-8"?>
<svg version="1.1" xmlns="http://www.w3.org/2000/svg" width="83" height="46">
<path d="M0 0 C7.59869571 -0.12679156 15.19711858 -0.21434844 22.79663086 -0.2746582 C25.3816955 -0.29980001 27.96668907 -0.33391815 30.55151367 -0.37719727 C34.26759374 -0.43785922 37.98273386 -0.46621419 41.69921875 -0.48828125 C43.43228523 -0.52699089 43.43228523 -0.52699089 45.20036316 -0.56648254 C53.22955731 -0.56928827 53.22955731 -0.56928827 57.18676758 2.35473633 C58.90747555 4.8650192 60.08892124 7.10111305 61 10 C62.15837626 5.94568308 61.83691257 3.78187881 60 0 C64.33333333 0 68.66666667 0 73 0 C72.649375 0.721875 72.29875 1.44375 71.9375 2.1875 C70.61210797 6.16367609 71.34645356 8.57757541 73.0625 12.3125 C73.371875 12.869375 73.68125 13.42625 74 14 C69.33333333 14 64.66666667 14 60 14 C59.38125 15.423125 59.38125 15.423125 58.75 16.875 C56.86587756 20.23950436 56.49577587 20.79314217 53 22 C50.42465327 22.16786322 47.96245607 22.23317374 45.390625 22.1953125 C44.66381531 22.1924826 43.93700562 22.18965271 43.18817139 22.18673706 C40.87527749 22.17557523 38.56277612 22.15047851 36.25 22.125 C34.67839102 22.11496501 33.10677596 22.10584006 31.53515625 22.09765625 C27.68983264 22.07735359 23.84535377 22.03819888 20 22 C20 16.72 20 11.44 20 6 C18.02 6 16.04 6 14 6 C14 11.28 14 16.56 14 22 C11.36 22 8.72 22 6 22 C6 16.72 6 11.44 6 6 C4.02 6 2.04 6 0 6 C0 4.02 0 2.04 0 0 Z M27 6 C27 6.66 27 7.32 27 8 C30.63 8 34.26 8 38 8 C38 7.34 38 6.68 38 6 C34.37 6 30.74 6 27 6 Z M46 6 C46 9.3 46 12.6 46 16 C49.29075996 15.62095792 49.29075996 15.62095792 52 14 C51.71269945 11.66055264 51.38063221 9.3260857 51 7 C49.35 6.67 47.7 6.34 46 6 Z M27 14 C27 14.66 27 15.32 27 16 C30.63 16 34.26 16 38 16 C38 15.34 38 14.68 38 14 C34.37 14 30.74 14 27 14 Z " fill="#EB0027" transform="translate(5,12)"/>
</svg>
