<?xml version="1.0" standalone="no"?>
<!DOCTYPE svg PUBLIC "-//W3C//DTD SVG 20010904//EN"
 "http://www.w3.org/TR/2001/REC-SVG-20010904/DTD/svg10.dtd">
<svg version="1.0" xmlns="http://www.w3.org/2000/svg"
 width="900.000000pt" height="300.000000pt" viewBox="0 0 900.000000 300.000000"
 preserveAspectRatio="xMidYMid meet">

<g transform="translate(0.000000,300.000000) scale(0.100000,-0.100000)"
fill="#000000" stroke="none">
<path d="M0 1500 l0 -1500 1855 0 c1230 0 1855 3 1855 10 0 6 -4 10 -10 10 -5
0 -10 6 -10 13 0 8 -14 11 -45 9 -30 -3 -45 0 -45 8 0 6 -5 8 -10 5 -6 -4 -9
-3 -8 2 6 18 -43 66 -70 68 -50 4 -54 5 -49 19 3 8 -1 17 -9 20 -8 3 -14 12
-14 21 0 8 -9 15 -19 15 -26 0 -51 10 -51 21 0 5 16 9 36 9 45 0 41 24 -4 26
-49 2 -51 6 -7 14 l40 7 -37 2 c-38 1 -38 1 -38 44 0 40 1 42 33 43 65 3 127
17 127 28 0 16 79 35 170 41 41 3 84 7 95 9 11 3 24 5 28 5 5 1 6 5 3 10 -3 5
2 12 12 16 24 11 232 12 232 1 0 -5 6 -3 14 3 9 7 59 11 142 10 71 0 138 0
149 0 l20 2 -20 15 c-18 14 -14 15 55 13 41 -1 90 -6 108 -10 18 -4 32 -3 32
3 0 10 65 1 93 -14 13 -6 17 -5 17 7 0 10 5 13 11 9 8 -5 10 -40 5 -120 -5
-85 -4 -114 5 -114 7 0 5 -8 -6 -20 -15 -17 -20 -17 -39 -6 -13 9 -29 11 -41
6 -19 -8 -19 -8 4 -17 17 -7 21 -12 12 -17 -7 -5 -18 -3 -24 3 -15 15 -27 14
-21 -3 6 -15 34 -28 106 -46 42 -11 46 -15 37 -31 -5 -11 -16 -19 -24 -19 -43
0 4 -52 59 -66 14 -3 26 -10 26 -15 0 -11 -21 -6 -150 34 -52 16 -120 30 -150
31 -30 1 -91 6 -135 11 -44 4 -105 9 -135 10 -30 1 -85 5 -121 10 -46 5 -68 4
-73 -4 -5 -7 1 -11 16 -12 13 -1 46 -3 73 -4 28 -1 68 -7 90 -13 85 -22 156
-33 175 -27 12 4 26 0 36 -10 9 -9 24 -13 35 -10 11 4 34 -1 52 -10 17 -9 56
-25 86 -36 51 -18 91 -19 698 -19 354 0 642 4 639 8 -9 14 26 45 67 58 30 11
17 31 -16 25 -4 -1 -29 10 -55 24 l-46 25 39 -5 c22 -2 69 -8 105 -13 36 -5
70 -8 75 -6 23 8 34 -12 28 -50 -4 -29 -10 -37 -23 -33 -9 2 -25 0 -34 -5 -12
-7 -18 -5 -22 7 -6 14 -8 14 -20 -2 -7 -10 -14 -21 -14 -25 0 -5 675 -8 1500
-8 l1500 0 0 1500 0 1500 -4500 0 -4500 0 0 -1500z m4725 1219 c4 -6 22 -8 44
-4 34 6 40 3 56 -21 17 -26 17 -27 0 -20 -10 3 -24 1 -31 -5 -10 -8 -14 -8
-14 0 0 6 4 11 10 11 5 0 7 7 3 16 -4 12 -8 11 -17 -7 -6 -12 -21 -26 -34 -30
-20 -8 -21 -6 -12 11 9 17 8 20 -13 20 -29 0 -37 7 -30 26 6 17 29 19 38 3z
m-526 -46 c3 -5 15 -13 26 -17 18 -8 17 -9 -10 -17 -28 -9 -112 -5 -162 8 -23
5 -30 23 -16 37 10 10 154 0 162 -11z m426 -92 c-3 -6 -11 -11 -16 -11 -5 0
-4 6 3 14 14 16 24 13 13 -3z m-646 -92 c-7 -4 -10 -11 -6 -15 4 -4 13 1 21
11 11 16 22 17 85 11 68 -6 160 -40 176 -65 9 -16 -17 -50 -49 -61 -44 -15
-100 -12 -153 9 -26 10 -52 19 -58 19 -5 -1 -14 9 -20 21 -5 11 -17 21 -25 21
-12 0 -12 2 -1 9 10 6 10 10 1 16 -8 5 -7 12 6 26 9 10 21 16 26 13 6 -4 5
-10 -3 -15z m637 -13 c-2 -46 -16 -59 -16 -14 0 29 6 48 15 48 1 0 1 -16 1
-34z m30 -159 c1 -9 -2 -15 -7 -11 -5 3 -9 -2 -9 -10 0 -9 -4 -16 -10 -16 -5
0 -10 4 -10 8 0 4 -15 9 -34 10 -30 2 -37 -2 -66 -49 -18 -28 -38 -56 -44 -62
-6 -7 -26 -42 -44 -78 -35 -69 -91 -143 -92 -121 0 8 -5 10 -12 5 -21 -13 -42
-9 -56 10 -7 9 -17 15 -22 12 -10 -6 -60 41 -52 49 3 3 1 6 -5 6 -13 0 -26
-37 -23 -65 1 -11 9 -29 18 -40 11 -13 7 -12 -11 4 -31 28 -33 47 -13 96 11
26 12 35 3 35 -7 0 -6 4 3 10 12 8 12 10 -3 16 -9 3 -15 9 -13 13 2 3 -8 29
-23 56 -19 36 -32 49 -45 47 -10 -2 -15 1 -12 7 4 5 2 12 -4 16 -12 8 -13 25
-1 25 4 0 29 -20 53 -45 52 -52 65 -55 78 -20 5 14 15 25 21 25 6 0 9 -6 6
-14 -3 -8 -9 -31 -13 -50 -7 -40 -6 -41 69 -51 28 -4 45 -10 41 -16 -3 -6 -12
-8 -20 -5 -7 3 -16 0 -20 -6 -5 -7 -2 -8 6 -3 8 5 11 4 6 -3 -9 -15 -38 -3
-29 12 3 6 0 5 -8 -2 -12 -11 -8 -19 23 -48 21 -19 41 -34 45 -34 23 1 66 59
123 165 64 121 93 146 164 142 29 -1 40 -7 42 -20z m370 -18 c20 -18 58 -89
85 -156 l12 -28 12 41 c7 23 23 57 36 77 28 43 54 50 45 12 -5 -19 -2 -25 9
-25 9 0 18 7 21 15 8 19 19 19 39 -2 16 -15 14 -17 -15 -29 -38 -16 -80 -8
-80 15 0 14 -2 14 -10 1 -5 -8 -9 -24 -9 -35 0 -11 3 -14 6 -7 9 23 19 12 20
-20 0 -18 6 -66 12 -107 13 -78 10 -91 -13 -72 -8 7 -20 10 -26 6 -6 -4 -9 -3
-8 2 4 16 -14 53 -23 48 -5 -4 -14 14 -21 39 -7 26 -15 46 -18 46 -3 0 -7 12
-8 27 -3 37 -49 112 -75 122 -12 5 -31 18 -41 30 -11 11 -25 21 -32 21 -7 0
-15 4 -18 9 -11 17 79 -10 100 -30z m-952 -78 c16 -18 16 -18 -9 -14 -25 5
-31 14 -18 26 9 9 8 10 27 -12z m-810 -21 c11 0 16 -3 13 -6 -9 -10 -87 -14
-87 -5 0 15 15 22 35 17 11 -3 29 -6 39 -6z m2026 -10 c0 -5 -7 -10 -16 -10
-8 0 -12 5 -9 10 3 6 10 10 16 10 5 0 9 -4 9 -10z m-1200 -10 c0 -5 -4 -10
-10 -10 -5 0 -10 5 -10 10 0 6 5 10 10 10 6 0 10 -4 10 -10z m-6 -26 c15 -6
11 -34 -6 -34 -5 0 -6 5 -2 12 5 8 2 9 -10 5 -9 -4 -14 -3 -11 2 3 5 -3 12
-12 14 -14 4 -13 5 4 6 12 0 28 -2 37 -5z m506 -214 c7 -30 12 -55 11 -55 -1
0 2 -12 8 -26 7 -19 6 -41 -3 -75 -7 -27 -11 -74 -10 -104 1 -30 -2 -60 -8
-67 -5 -7 -7 -16 -4 -21 7 -12 -24 -92 -36 -92 -5 0 -7 15 -4 33 3 17 10 73
16 122 6 50 18 114 26 144 14 47 14 57 0 85 -17 35 -33 151 -18 126 5 -8 15
-40 22 -70z m-369 3 c-12 -20 -14 -14 -5 12 4 9 9 14 11 11 3 -2 0 -13 -6 -23z
m84 -59 c17 -14 21 -21 10 -15 -30 14 -61 40 -50 41 6 0 24 -12 40 -26z m722
-60 c2 -7 -6 -10 -21 -7 -14 3 -23 10 -20 15 8 12 36 6 41 -8z m51 -220 c6
-21 13 -48 17 -59 l8 -20 -16 20 c-15 20 -19 21 -58 24 -19 1 -19 2 -4 17 10
10 14 26 11 38 -5 21 -5 21 10 1 13 -18 14 -17 9 15 -8 47 11 18 23 -36z m-58
36 c0 -5 -4 -10 -10 -10 -5 0 -10 5 -10 10 0 6 5 10 10 10 6 0 10 -4 10 -10z
m80 -277 c-1 -18 -19 -35 -29 -28 -9 5 -9 10 0 21 12 15 29 19 29 7z m760 -27
c0 -2 -8 -10 -17 -17 -16 -13 -17 -12 -4 4 13 16 21 21 21 13z m-614 -57 c10
-16 -18 -40 -35 -29 -12 7 -12 11 -2 24 16 19 27 20 37 5z m104 -118 c0 -23
-16 -36 -25 -21 -9 14 1 40 15 40 5 0 10 -9 10 -19z m760 -52 c0 -6 -4 -7 -10
-4 -5 3 -10 11 -10 16 0 6 5 7 10 4 6 -3 10 -11 10 -16z m-960 -39 c0 -5 -5
-10 -11 -10 -5 0 -7 5 -4 10 3 6 8 10 11 10 2 0 4 -4 4 -10z m923 -60 c-8 -28
-20 -34 -17 -7 3 28 2 27 13 27 5 0 7 -9 4 -20z m-338 -30 c63 -5 76 -8 45
-10 -25 -1 -54 -4 -65 -6 -11 -2 -40 -5 -65 -8 -25 -2 -57 -9 -72 -15 -34 -13
-204 1 -221 18 -9 10 -7 16 8 28 21 15 107 14 370 -7z m-225 -88 c0 -22 -26
-59 -35 -50 -4 4 -4 20 0 37 7 33 35 43 35 13z m-1140 4 c0 -9 -30 -14 -35 -6
-4 6 3 10 14 10 12 0 21 -2 21 -4z m30 0 c0 -3 -4 -8 -10 -11 -5 -3 -10 -1
-10 4 0 6 5 11 10 11 6 0 10 -2 10 -4z m1040 -189 c-4 -19 -12 -42 -18 -53
-10 -16 -11 -13 -5 16 6 34 20 70 27 70 2 0 1 -15 -4 -33z m503 -116 c4 -34 2
-60 -4 -68 -15 -17 -29 -17 -29 2 0 8 -4 15 -10 15 -12 0 -2 101 13 118 15 18
23 1 30 -67z m-84 -2 c-18 -44 -22 -28 -7 27 9 37 13 43 16 26 2 -13 -2 -37
-9 -53z m-776 -56 c-7 -2 -21 -2 -30 0 -10 3 -4 5 12 5 17 0 24 -2 18 -5z m90
-10 c-7 -2 -21 -2 -30 0 -10 3 -4 5 12 5 17 0 24 -2 18 -5z m-98 -48 c48 -12
76 -15 148 -16 37 0 65 -4 62 -8 -3 -5 2 -11 10 -15 8 -3 15 -1 15 5 0 6 5 7
10 4 6 -3 10 0 10 7 0 7 8 22 17 33 l15 20 -5 -20 c-3 -11 -12 -44 -20 -72
-22 -78 3 -70 31 10 12 34 20 52 18 40 -3 -15 1 -23 9 -23 7 0 15 -4 17 -9 2
-6 30 -11 62 -12 65 -3 128 -21 134 -38 2 -6 -8 -11 -22 -11 -13 0 -28 -5 -32
-11 -4 -8 0 -9 15 -4 12 4 21 2 21 -4 0 -6 -3 -11 -7 -12 -93 -8 -97 -20 -16
-49 47 -16 57 -27 55 -62 0 -12 12 -21 41 -28 64 -17 65 -18 18 -19 -25 -1
-74 -13 -110 -27 -82 -33 -109 -35 -191 -11 -36 10 -105 25 -155 32 -84 13
-256 46 -263 51 -10 7 21 74 34 74 10 0 15 14 16 48 1 26 3 56 4 67 1 11 2 35
3 54 1 25 4 31 14 24 6 -6 26 -14 42 -18z m218 15 c9 0 17 -6 17 -14 0 -11 -9
-12 -47 -3 -27 5 -68 13 -93 17 -36 7 -30 8 30 5 41 -2 83 -4 93 -5z m520 -40
c-3 -11 -7 -20 -9 -20 -2 0 -4 9 -4 20 0 11 4 20 9 20 5 0 7 -9 4 -20z m-2298
-40 c-3 -5 -12 -7 -20 -3 -21 7 -19 13 6 13 11 0 18 -4 14 -10z m2125 -14 c0
-3 -4 -8 -10 -11 -5 -3 -10 -1 -10 4 0 6 5 11 10 11 6 0 10 -2 10 -4z m50 -16
c0 -5 -2 -10 -4 -10 -3 0 -8 5 -11 10 -3 6 -1 10 4 10 6 0 11 -4 11 -10z m47
4 c-3 -3 -12 -4 -19 -1 -8 3 -5 6 6 6 11 1 17 -2 13 -5z m53 -4 c0 -5 -2 -10
-4 -10 -3 0 -8 5 -11 10 -3 6 -1 10 4 10 6 0 11 -4 11 -10z m-2456 -35 c-4 -8
-13 -15 -20 -15 -12 0 -12 3 -2 15 17 19 29 19 22 0z m2293 -1 c-3 -3 -12 -4
-19 -1 -8 3 -5 6 6 6 11 1 17 -2 13 -5z m-2265 -44 c5 -30 -15 -61 -30 -45 -4
4 -2 9 3 12 6 2 9 19 7 40 -5 44 14 38 20 -7z m2541 13 c-7 -2 -19 -2 -25 0
-7 3 -2 5 12 5 14 0 19 -2 13 -5z m-56 -9 c-3 -3 -12 -4 -19 -1 -8 3 -5 6 6 6
11 1 17 -2 13 -5z m-92 -15 c-22 -4 -56 -8 -75 -7 l-35 1 35 7 c19 4 53 7 75
8 l40 0 -40 -9z m-835 -39 c0 -13 -7 -20 -20 -20 -23 0 -26 10 -8 28 18 18 28
15 28 -8z m-93 -47 c3 -9 -4 -10 -28 -3 -45 13 -50 22 -10 18 19 -2 36 -8 38
-15z m1380 -7 c3 -2 -49 -4 -114 -4 -78 1 -103 3 -73 7 45 7 180 4 187 -3z
m-1300 -12 c-3 -3 -12 -4 -19 -1 -8 3 -5 6 6 6 11 1 17 -2 13 -5z m1275 -96
c-7 -7 -12 -8 -12 -2 0 14 12 26 19 19 2 -3 -1 -11 -7 -17z"/>
<path d="M5030 1591 c0 -6 5 -13 10 -16 6 -3 10 1 10 9 0 9 -4 16 -10 16 -5 0
-10 -4 -10 -9z"/>
<path d="M5354 359 c-3 -5 35 -8 84 -7 50 2 88 6 86 10 -6 10 -164 7 -170 -3z"/>
<path d="M5548 173 c7 -3 16 -2 19 1 4 3 -2 6 -13 5 -11 0 -14 -3 -6 -6z"/>
<path d="M4397 489 c7 -7 15 -10 18 -7 3 3 -2 9 -12 12 -14 6 -15 5 -6 -5z"/>
<path d="M3836 464 c-5 -12 -2 -15 10 -10 8 3 20 6 25 6 6 0 7 5 4 10 -10 15
-32 12 -39 -6z"/>
<path d="M6050 85 c0 -8 -6 -15 -12 -16 -7 -1 -2 -4 12 -8 27 -8 41 4 33 26
-7 18 -33 17 -33 -2z"/>
<path d="M5947 24 c-13 -13 -7 -24 14 -24 11 0 19 5 17 12 -5 14 -22 21 -31
12z"/>
<path d="M3763 3 c9 -2 23 -2 30 0 6 3 -1 5 -18 5 -16 0 -22 -2 -12 -5z"/>
</g>
</svg>
